<?xml version="1.0" encoding="utf-8"?>
<!DOCTYPE svg PUBLIC "-//W3C//DTD SVG 1.0//EN" "http://www.w3.org/TR/2001/REC-SVG-20010904/DTD/svg10.dtd">
<svg xmlns="http://www.w3.org/2000/svg" xml:space="preserve" xmlns:xlink="http://www.w3.org/1999/xlink" width="58" height="58" viewBox="0 0 58 58">
<desc></desc>
<rect width="58" height="58" fill="#ffffff" cx="0" cy="0" />
<defs>
<rect id="p" width="2" height="2" />
</defs>
<g fill="#000000">
<use x="4" y="4" xlink:href="#p" />
<use x="6" y="4" xlink:href="#p" />
<use x="8" y="4" xlink:href="#p" />
<use x="10" y="4" xlink:href="#p" />
<use x="12" y="4" xlink:href="#p" />
<use x="14" y="4" xlink:href="#p" />
<use x="16" y="4" xlink:href="#p" />
<use x="28" y="4" xlink:href="#p" />
<use x="30" y="4" xlink:href="#p" />
<use x="36" y="4" xlink:href="#p" />
<use x="40" y="4" xlink:href="#p" />
<use x="42" y="4" xlink:href="#p" />
<use x="44" y="4" xlink:href="#p" />
<use x="46" y="4" xlink:href="#p" />
<use x="48" y="4" xlink:href="#p" />
<use x="50" y="4" xlink:href="#p" />
<use x="52" y="4" xlink:href="#p" />
<use x="4" y="6" xlink:href="#p" />
<use x="16" y="6" xlink:href="#p" />
<use x="22" y="6" xlink:href="#p" />
<use x="24" y="6" xlink:href="#p" />
<use x="26" y="6" xlink:href="#p" />
<use x="30" y="6" xlink:href="#p" />
<use x="32" y="6" xlink:href="#p" />
<use x="34" y="6" xlink:href="#p" />
<use x="36" y="6" xlink:href="#p" />
<use x="40" y="6" xlink:href="#p" />
<use x="52" y="6" xlink:href="#p" />
<use x="4" y="8" xlink:href="#p" />
<use x="8" y="8" xlink:href="#p" />
<use x="10" y="8" xlink:href="#p" />
<use x="12" y="8" xlink:href="#p" />
<use x="16" y="8" xlink:href="#p" />
<use x="20" y="8" xlink:href="#p" />
<use x="22" y="8" xlink:href="#p" />
<use x="28" y="8" xlink:href="#p" />
<use x="34" y="8" xlink:href="#p" />
<use x="40" y="8" xlink:href="#p" />
<use x="44" y="8" xlink:href="#p" />
<use x="46" y="8" xlink:href="#p" />
<use x="48" y="8" xlink:href="#p" />
<use x="52" y="8" xlink:href="#p" />
<use x="4" y="10" xlink:href="#p" />
<use x="8" y="10" xlink:href="#p" />
<use x="10" y="10" xlink:href="#p" />
<use x="12" y="10" xlink:href="#p" />
<use x="16" y="10" xlink:href="#p" />
<use x="20" y="10" xlink:href="#p" />
<use x="24" y="10" xlink:href="#p" />
<use x="26" y="10" xlink:href="#p" />
<use x="28" y="10" xlink:href="#p" />
<use x="30" y="10" xlink:href="#p" />
<use x="32" y="10" xlink:href="#p" />
<use x="40" y="10" xlink:href="#p" />
<use x="44" y="10" xlink:href="#p" />
<use x="46" y="10" xlink:href="#p" />
<use x="48" y="10" xlink:href="#p" />
<use x="52" y="10" xlink:href="#p" />
<use x="4" y="12" xlink:href="#p" />
<use x="8" y="12" xlink:href="#p" />
<use x="10" y="12" xlink:href="#p" />
<use x="12" y="12" xlink:href="#p" />
<use x="16" y="12" xlink:href="#p" />
<use x="20" y="12" xlink:href="#p" />
<use x="22" y="12" xlink:href="#p" />
<use x="24" y="12" xlink:href="#p" />
<use x="28" y="12" xlink:href="#p" />
<use x="36" y="12" xlink:href="#p" />
<use x="40" y="12" xlink:href="#p" />
<use x="44" y="12" xlink:href="#p" />
<use x="46" y="12" xlink:href="#p" />
<use x="48" y="12" xlink:href="#p" />
<use x="52" y="12" xlink:href="#p" />
<use x="4" y="14" xlink:href="#p" />
<use x="16" y="14" xlink:href="#p" />
<use x="20" y="14" xlink:href="#p" />
<use x="22" y="14" xlink:href="#p" />
<use x="24" y="14" xlink:href="#p" />
<use x="26" y="14" xlink:href="#p" />
<use x="30" y="14" xlink:href="#p" />
<use x="32" y="14" xlink:href="#p" />
<use x="34" y="14" xlink:href="#p" />
<use x="40" y="14" xlink:href="#p" />
<use x="52" y="14" xlink:href="#p" />
<use x="4" y="16" xlink:href="#p" />
<use x="6" y="16" xlink:href="#p" />
<use x="8" y="16" xlink:href="#p" />
<use x="10" y="16" xlink:href="#p" />
<use x="12" y="16" xlink:href="#p" />
<use x="14" y="16" xlink:href="#p" />
<use x="16" y="16" xlink:href="#p" />
<use x="20" y="16" xlink:href="#p" />
<use x="24" y="16" xlink:href="#p" />
<use x="28" y="16" xlink:href="#p" />
<use x="32" y="16" xlink:href="#p" />
<use x="36" y="16" xlink:href="#p" />
<use x="40" y="16" xlink:href="#p" />
<use x="42" y="16" xlink:href="#p" />
<use x="44" y="16" xlink:href="#p" />
<use x="46" y="16" xlink:href="#p" />
<use x="48" y="16" xlink:href="#p" />
<use x="50" y="16" xlink:href="#p" />
<use x="52" y="16" xlink:href="#p" />
<use x="20" y="18" xlink:href="#p" />
<use x="26" y="18" xlink:href="#p" />
<use x="28" y="18" xlink:href="#p" />
<use x="36" y="18" xlink:href="#p" />
<use x="4" y="20" xlink:href="#p" />
<use x="8" y="20" xlink:href="#p" />
<use x="10" y="20" xlink:href="#p" />
<use x="12" y="20" xlink:href="#p" />
<use x="14" y="20" xlink:href="#p" />
<use x="16" y="20" xlink:href="#p" />
<use x="22" y="20" xlink:href="#p" />
<use x="26" y="20" xlink:href="#p" />
<use x="28" y="20" xlink:href="#p" />
<use x="30" y="20" xlink:href="#p" />
<use x="32" y="20" xlink:href="#p" />
<use x="40" y="20" xlink:href="#p" />
<use x="42" y="20" xlink:href="#p" />
<use x="44" y="20" xlink:href="#p" />
<use x="46" y="20" xlink:href="#p" />
<use x="48" y="20" xlink:href="#p" />
<use x="4" y="22" xlink:href="#p" />
<use x="6" y="22" xlink:href="#p" />
<use x="10" y="22" xlink:href="#p" />
<use x="20" y="22" xlink:href="#p" />
<use x="24" y="22" xlink:href="#p" />
<use x="26" y="22" xlink:href="#p" />
<use x="28" y="22" xlink:href="#p" />
<use x="30" y="22" xlink:href="#p" />
<use x="38" y="22" xlink:href="#p" />
<use x="42" y="22" xlink:href="#p" />
<use x="50" y="22" xlink:href="#p" />
<use x="6" y="24" xlink:href="#p" />
<use x="8" y="24" xlink:href="#p" />
<use x="12" y="24" xlink:href="#p" />
<use x="16" y="24" xlink:href="#p" />
<use x="18" y="24" xlink:href="#p" />
<use x="20" y="24" xlink:href="#p" />
<use x="28" y="24" xlink:href="#p" />
<use x="30" y="24" xlink:href="#p" />
<use x="32" y="24" xlink:href="#p" />
<use x="34" y="24" xlink:href="#p" />
<use x="36" y="24" xlink:href="#p" />
<use x="46" y="24" xlink:href="#p" />
<use x="50" y="24" xlink:href="#p" />
<use x="52" y="24" xlink:href="#p" />
<use x="4" y="26" xlink:href="#p" />
<use x="6" y="26" xlink:href="#p" />
<use x="18" y="26" xlink:href="#p" />
<use x="20" y="26" xlink:href="#p" />
<use x="24" y="26" xlink:href="#p" />
<use x="26" y="26" xlink:href="#p" />
<use x="28" y="26" xlink:href="#p" />
<use x="32" y="26" xlink:href="#p" />
<use x="34" y="26" xlink:href="#p" />
<use x="38" y="26" xlink:href="#p" />
<use x="40" y="26" xlink:href="#p" />
<use x="42" y="26" xlink:href="#p" />
<use x="44" y="26" xlink:href="#p" />
<use x="52" y="26" xlink:href="#p" />
<use x="14" y="28" xlink:href="#p" />
<use x="16" y="28" xlink:href="#p" />
<use x="18" y="28" xlink:href="#p" />
<use x="20" y="28" xlink:href="#p" />
<use x="22" y="28" xlink:href="#p" />
<use x="26" y="28" xlink:href="#p" />
<use x="28" y="28" xlink:href="#p" />
<use x="30" y="28" xlink:href="#p" />
<use x="34" y="28" xlink:href="#p" />
<use x="38" y="28" xlink:href="#p" />
<use x="40" y="28" xlink:href="#p" />
<use x="44" y="28" xlink:href="#p" />
<use x="48" y="28" xlink:href="#p" />
<use x="50" y="28" xlink:href="#p" />
<use x="52" y="28" xlink:href="#p" />
<use x="4" y="30" xlink:href="#p" />
<use x="8" y="30" xlink:href="#p" />
<use x="10" y="30" xlink:href="#p" />
<use x="14" y="30" xlink:href="#p" />
<use x="20" y="30" xlink:href="#p" />
<use x="30" y="30" xlink:href="#p" />
<use x="36" y="30" xlink:href="#p" />
<use x="42" y="30" xlink:href="#p" />
<use x="46" y="30" xlink:href="#p" />
<use x="50" y="30" xlink:href="#p" />
<use x="4" y="32" xlink:href="#p" />
<use x="10" y="32" xlink:href="#p" />
<use x="12" y="32" xlink:href="#p" />
<use x="16" y="32" xlink:href="#p" />
<use x="18" y="32" xlink:href="#p" />
<use x="24" y="32" xlink:href="#p" />
<use x="26" y="32" xlink:href="#p" />
<use x="28" y="32" xlink:href="#p" />
<use x="30" y="32" xlink:href="#p" />
<use x="32" y="32" xlink:href="#p" />
<use x="34" y="32" xlink:href="#p" />
<use x="36" y="32" xlink:href="#p" />
<use x="40" y="32" xlink:href="#p" />
<use x="42" y="32" xlink:href="#p" />
<use x="44" y="32" xlink:href="#p" />
<use x="46" y="32" xlink:href="#p" />
<use x="50" y="32" xlink:href="#p" />
<use x="52" y="32" xlink:href="#p" />
<use x="4" y="34" xlink:href="#p" />
<use x="8" y="34" xlink:href="#p" />
<use x="12" y="34" xlink:href="#p" />
<use x="14" y="34" xlink:href="#p" />
<use x="26" y="34" xlink:href="#p" />
<use x="32" y="34" xlink:href="#p" />
<use x="34" y="34" xlink:href="#p" />
<use x="38" y="34" xlink:href="#p" />
<use x="42" y="34" xlink:href="#p" />
<use x="44" y="34" xlink:href="#p" />
<use x="52" y="34" xlink:href="#p" />
<use x="4" y="36" xlink:href="#p" />
<use x="8" y="36" xlink:href="#p" />
<use x="10" y="36" xlink:href="#p" />
<use x="16" y="36" xlink:href="#p" />
<use x="18" y="36" xlink:href="#p" />
<use x="20" y="36" xlink:href="#p" />
<use x="24" y="36" xlink:href="#p" />
<use x="26" y="36" xlink:href="#p" />
<use x="36" y="36" xlink:href="#p" />
<use x="38" y="36" xlink:href="#p" />
<use x="40" y="36" xlink:href="#p" />
<use x="42" y="36" xlink:href="#p" />
<use x="44" y="36" xlink:href="#p" />
<use x="48" y="36" xlink:href="#p" />
<use x="20" y="38" xlink:href="#p" />
<use x="24" y="38" xlink:href="#p" />
<use x="28" y="38" xlink:href="#p" />
<use x="30" y="38" xlink:href="#p" />
<use x="34" y="38" xlink:href="#p" />
<use x="36" y="38" xlink:href="#p" />
<use x="44" y="38" xlink:href="#p" />
<use x="46" y="38" xlink:href="#p" />
<use x="4" y="40" xlink:href="#p" />
<use x="6" y="40" xlink:href="#p" />
<use x="8" y="40" xlink:href="#p" />
<use x="10" y="40" xlink:href="#p" />
<use x="12" y="40" xlink:href="#p" />
<use x="14" y="40" xlink:href="#p" />
<use x="16" y="40" xlink:href="#p" />
<use x="22" y="40" xlink:href="#p" />
<use x="30" y="40" xlink:href="#p" />
<use x="32" y="40" xlink:href="#p" />
<use x="36" y="40" xlink:href="#p" />
<use x="40" y="40" xlink:href="#p" />
<use x="44" y="40" xlink:href="#p" />
<use x="48" y="40" xlink:href="#p" />
<use x="50" y="40" xlink:href="#p" />
<use x="52" y="40" xlink:href="#p" />
<use x="4" y="42" xlink:href="#p" />
<use x="16" y="42" xlink:href="#p" />
<use x="20" y="42" xlink:href="#p" />
<use x="28" y="42" xlink:href="#p" />
<use x="30" y="42" xlink:href="#p" />
<use x="36" y="42" xlink:href="#p" />
<use x="44" y="42" xlink:href="#p" />
<use x="46" y="42" xlink:href="#p" />
<use x="50" y="42" xlink:href="#p" />
<use x="52" y="42" xlink:href="#p" />
<use x="4" y="44" xlink:href="#p" />
<use x="8" y="44" xlink:href="#p" />
<use x="10" y="44" xlink:href="#p" />
<use x="12" y="44" xlink:href="#p" />
<use x="16" y="44" xlink:href="#p" />
<use x="20" y="44" xlink:href="#p" />
<use x="22" y="44" xlink:href="#p" />
<use x="28" y="44" xlink:href="#p" />
<use x="32" y="44" xlink:href="#p" />
<use x="34" y="44" xlink:href="#p" />
<use x="36" y="44" xlink:href="#p" />
<use x="38" y="44" xlink:href="#p" />
<use x="40" y="44" xlink:href="#p" />
<use x="42" y="44" xlink:href="#p" />
<use x="44" y="44" xlink:href="#p" />
<use x="48" y="44" xlink:href="#p" />
<use x="50" y="44" xlink:href="#p" />
<use x="52" y="44" xlink:href="#p" />
<use x="4" y="46" xlink:href="#p" />
<use x="8" y="46" xlink:href="#p" />
<use x="10" y="46" xlink:href="#p" />
<use x="12" y="46" xlink:href="#p" />
<use x="16" y="46" xlink:href="#p" />
<use x="20" y="46" xlink:href="#p" />
<use x="24" y="46" xlink:href="#p" />
<use x="34" y="46" xlink:href="#p" />
<use x="38" y="46" xlink:href="#p" />
<use x="40" y="46" xlink:href="#p" />
<use x="44" y="46" xlink:href="#p" />
<use x="46" y="46" xlink:href="#p" />
<use x="48" y="46" xlink:href="#p" />
<use x="50" y="46" xlink:href="#p" />
<use x="52" y="46" xlink:href="#p" />
<use x="4" y="48" xlink:href="#p" />
<use x="8" y="48" xlink:href="#p" />
<use x="10" y="48" xlink:href="#p" />
<use x="12" y="48" xlink:href="#p" />
<use x="16" y="48" xlink:href="#p" />
<use x="20" y="48" xlink:href="#p" />
<use x="26" y="48" xlink:href="#p" />
<use x="28" y="48" xlink:href="#p" />
<use x="36" y="48" xlink:href="#p" />
<use x="46" y="48" xlink:href="#p" />
<use x="48" y="48" xlink:href="#p" />
<use x="52" y="48" xlink:href="#p" />
<use x="4" y="50" xlink:href="#p" />
<use x="16" y="50" xlink:href="#p" />
<use x="24" y="50" xlink:href="#p" />
<use x="26" y="50" xlink:href="#p" />
<use x="32" y="50" xlink:href="#p" />
<use x="34" y="50" xlink:href="#p" />
<use x="36" y="50" xlink:href="#p" />
<use x="38" y="50" xlink:href="#p" />
<use x="42" y="50" xlink:href="#p" />
<use x="44" y="50" xlink:href="#p" />
<use x="46" y="50" xlink:href="#p" />
<use x="52" y="50" xlink:href="#p" />
<use x="4" y="52" xlink:href="#p" />
<use x="6" y="52" xlink:href="#p" />
<use x="8" y="52" xlink:href="#p" />
<use x="10" y="52" xlink:href="#p" />
<use x="12" y="52" xlink:href="#p" />
<use x="14" y="52" xlink:href="#p" />
<use x="16" y="52" xlink:href="#p" />
<use x="20" y="52" xlink:href="#p" />
<use x="22" y="52" xlink:href="#p" />
<use x="26" y="52" xlink:href="#p" />
<use x="38" y="52" xlink:href="#p" />
<use x="42" y="52" xlink:href="#p" />
<use x="44" y="52" xlink:href="#p" />
<use x="46" y="52" xlink:href="#p" />
<use x="48" y="52" xlink:href="#p" />
<use x="50" y="52" xlink:href="#p" />
<use x="52" y="52" xlink:href="#p" />
</g>
</svg>